<?xml version="1.0" encoding="utf-8"?>
<svg xmlns="http://www.w3.org/2000/svg" width="36in" height="36in" viewBox="0 0 36 36">
  <rect width="36" height="36" fill="white" stroke="black" stroke-width="0.01"/>
  <line x1="0" y1="18" x2="36" y2="18" stroke="gray" stroke-width="0.005" stroke-dasharray="0.1,0.1"/>
  <line x1="18" y1="0" x2="18" y2="36" stroke="gray" stroke-width="0.005" stroke-dasharray="0.1,0.1"/>
  <circle cx="18" cy="18" r="18" fill="none" stroke="green" stroke-width="0.01" opacity="0.3"/>
  <polygon points="18.236332924550293,25.428190720172424 18.719866003050225,32.80547989183202 17.28013399694978,32.80547989183202 17.763667075449707,25.428190720172424" fill="red" fill-opacity="0.3" stroke="red" stroke-width="0.02"/>
  <text x="18.0" y="29.116835306002223" font-size="0.3" text-anchor="middle">0</text>
  <polygon points="19.22361772416444,25.432999431827795 20.626477153116046,32.485650040897326 19.21217999692136,32.6718457938411 18.741877853917764,25.4964216889332" fill="none" stroke="red" stroke-width="0.01"/>
  <polygon points="20.059015555150385,24.843415646539643 22.619099081011832,32.385178517430106 21.192332111961452,32.76747957457456 19.638548045722267,24.95607957613443" fill="none" stroke="red" stroke-width="0.01"/>
  <polygon points="21.297542434538943,25.251996251582014 24.09432756755711,30.923315471808603 22.828823655737146,31.447504355320635 20.796221109920186,25.45965034334595" fill="none" stroke="red" stroke-width="0.01"/>
  <polygon points="21.603564213389838,23.843103079462573 26.34136365498587,30.933721026108522 25.030249146577987,31.690693340476237 21.25849359705075,24.042329692695375" fill="none" stroke="red" stroke-width="0.01"/>
  <polygon points="23.85237460547896,25.052517950648433 26.44123010158883,28.00454187073767 25.478894258751986,28.742968134445857 23.297503221926267,25.47828573810564" fill="none" stroke="red" stroke-width="0.01"/>
  <polygon points="24.91735718115769,24.39887707606285 27.48035682512834,26.64656743848392 26.64656743848392,27.48035682512834 24.39887707606285,24.91735718115769" fill="none" stroke="red" stroke-width="0.01"/>
  <polygon points="25.37425968806855,23.22799523750436 28.846994184482945,25.548402243173893 28.098605350960472,26.523721559771413 24.95845447042563,23.769883147296376" fill="none" stroke="red" stroke-width="0.01"/>
  <polygon points="24.840708140998935,21.652210277073618 30.89231489217268,24.636532466555114 30.193563155163268,25.846805976932416 24.583260950407826,22.098121891443284" fill="none" stroke="red" stroke-width="0.01"/>
  <polygon points="25.833062862159267,20.922977579744266 31.074091836507314,22.702067185913062 30.569642588203877,23.919915402696134 25.605669135186737,21.471954599399915" fill="none" stroke="red" stroke-width="0.01"/>
  <polygon points="26.190584522040197,19.88410634705428 31.53297462866879,20.946773810629438 31.193286722512173,22.21450633512263 26.035307441457576,20.463608301039592" fill="none" stroke="red" stroke-width="0.01"/>
  <polygon points="25.47675795521288,18.740589024717856 32.69150952756142,19.213468826121264 32.50497732268187,20.630321588490823 25.413672150043247,19.21977328878966" fill="none" stroke="red" stroke-width="0.01"/>
  <polygon points="26.884832503176064,17.668193728910286 31.34883810882838,17.375607343489197 31.34883810882838,18.624392656510803 26.884832503176064,18.331806271089714" fill="none" stroke="red" stroke-width="0.01"/>
  <polygon points="25.486957805691258,16.76564928795042 32.43169166703386,15.384255834769087 32.61694810530629,16.791418187685768 25.55131937746801,17.254523961475115" fill="none" stroke="red" stroke-width="0.01"/>
  <polygon points="25.60637699510976,15.681993965729342 31.62221716885999,13.639891398108434 31.977240425047068,14.964856228067156 25.746318725661922,16.204263614249133" fill="none" stroke="red" stroke-width="0.01"/>
  <polygon points="25.109078465372626,14.77293681802874 31.06623325801799,11.835193179875215 31.59839884852503,13.119954565905603 25.308755850141555,15.255000668437082" fill="none" stroke="red" stroke-width="0.01"/>
  <polygon points="24.081561264130947,14.237103121577732 30.69526284144014,9.817969010046546 31.433478112571294,11.096595366568934 24.29954492060032,14.614661889802324" fill="none" stroke="red" stroke-width="0.01"/>
  <polygon points="23.5425794548958,13.471805915862785 29.514480366490293,8.234589377069419 30.412829138313004,9.40534029016951 23.808424734238493,13.818262229152237" fill="none" stroke="red" stroke-width="0.01"/>
  <polygon points="24.158202665591357,11.357079386558343 26.887241848955398,8.24520660715562 27.754793392844373,9.112758151044597 24.642920613441653,11.841797334408636" fill="none" stroke="red" stroke-width="0.01"/>
  <polygon points="23.94042290147794,9.559516964546273 24.835974579200307,8.21922916290223 25.678218739633955,8.865505837670648 24.615385967433838,10.077434340943256" fill="none" stroke="red" stroke-width="0.01"/>
  <polygon points="21.25131827888493,11.972220413190351 25.037424464743797,4.2947565536380345 26.350376757227757,5.052789913136783 21.594551111147954,12.170385981292124" fill="none" stroke="red" stroke-width="0.01"/>
  <polygon points="20.363420334091426,11.815339628139288 23.2616244315659,3.2775056731941277 24.689845258847853,3.8690941099180343 20.702024743248206,11.955594166691354" fill="none" stroke="red" stroke-width="0.01"/>
  <polygon points="19.73053630893597,10.581464195399217 21.100343848747727,3.6949766538917945 22.467535139571737,4.0613144561669525 20.210579496590476,10.710091379863304" fill="none" stroke="red" stroke-width="0.01"/>
  <polygon points="18.775090925471936,9.996844761638656 19.178966925367174,3.8348877555870455 20.52740622331621,4.01241315700703 19.322688653964278,10.068937370267857" fill="none" stroke="red" stroke-width="0.01"/>
  <polygon points="17.66504370815641,9.06710746736304 17.37875736424306,4.699221920632516 18.621242635756936,4.699221920632516 18.334956291843586,9.06710746736304" fill="none" stroke="red" stroke-width="0.01"/>
  <polygon points="16.7060769100394,10.213551626196828 15.443828212680108,3.867798901078059 16.811389552184,3.687756035128407 17.234552596976883,10.143976482097294" fill="none" stroke="red" stroke-width="0.01"/>
  <polygon points="15.707222758402432,10.467944631484546 13.614662605435344,4.303461204545709 14.94954419013171,3.9457807619351417 16.219575652184577,10.330660087355872" fill="none" stroke="red" stroke-width="0.01"/>
  <polygon points="14.800019951647776,10.94584069678405 11.808110046256179,4.878847579825335 13.100271521365336,4.343616772059097 15.27468371297735,10.749228529274315" fill="none" stroke="red" stroke-width="0.01"/>
  <polygon points="13.737452599852979,11.170658885736971 10.3176195317713,6.0525170086919395 11.494366452359063,5.373121857322531 14.216890804012197,10.893855109505857" fill="none" stroke="red" stroke-width="0.01"/>
  <polygon points="13.266729899670237,12.22357616632497 8.43966539326197,6.719364012288937 9.578139036280508,5.845782460898089 13.645463483041238,11.932963666550421" fill="none" stroke="red" stroke-width="0.01"/>
  <polygon points="12.550135505838107,12.888079470046465 7.052150487875862,8.066476015406767 8.066476015406764,7.052150487875865 12.888079470046463,12.550135505838108" fill="none" stroke="red" stroke-width="0.01"/>
  <polygon points="10.650143913490549,12.788310727745722 7.128602213957958,10.435291791576024 7.879328179229314,9.456926665583687 11.063611999384587,12.249468627348524" fill="none" stroke="red" stroke-width="0.01"/>
  <polygon points="9.865273163779865,13.709650322179048 6.401703803048521,12.001606934192218 7.0060911246502995,10.95477738572747 10.217084769778605,13.100294745896825" fill="none" stroke="red" stroke-width="0.01"/>
  <polygon points="10.556237086791764,15.20917194590246 4.536608214541651,13.16578328844022 5.061636952261887,11.898251789200401 10.763051324347497,14.709878208703559" fill="none" stroke="red" stroke-width="0.01"/>
  <polygon points="9.847015212399487,16.123372705135964 4.429425636891526,15.045747137180317 4.770411426192393,13.773170846850512 10.000994409837862,15.54871451698727" fill="none" stroke="red" stroke-width="0.01"/>
  <polygon points="8.947668563040946,17.15614243336864 4.8840639541847555,16.889799715792243 5.043637659960135,15.677717083866108 9.037712867314749,16.47218803885341" fill="none" stroke="red" stroke-width="0.01"/>
  <polygon points="9.040055712553686,18.33672935752902 4.72627367544187,18.6194695700715 4.72627367544187,17.380530429928502 9.040055712553686,17.663270642470984" fill="none" stroke="red" stroke-width="0.01"/>
  <polygon points="9.33457654542864,19.468762104143924 4.746773981846246,20.38133277313656 4.582032433004516,19.129996475985266 9.249700084221185,18.824061374853855" fill="none" stroke="red" stroke-width="0.01"/>
  <polygon points="11.367337912669505,19.987474361906227 3.404067923360751,22.690640274255994 3.0142318925902583,21.235752400799534 11.262208956700757,19.59512775688419" fill="none" stroke="red" stroke-width="0.01"/>
  <polygon points="10.86148738014448,21.241578500623604 4.963200896464906,24.15029150147245 4.432678121958471,22.869496224111213 10.660167179374946,20.75554854154612" fill="none" stroke="red" stroke-width="0.01"/>
  <polygon points="11.081174007244055,22.322339284372784 6.142001887184847,25.62258858400292 5.469645587248641,24.458033311724392 10.797331379579745,21.830709431904342" fill="none" stroke="red" stroke-width="0.01"/>
  <polygon points="11.581605657106428,23.296263126849897 7.361334521507478,26.997341580217892 6.555746159414458,25.94747838667268 11.222999968034053,22.828919094005578" fill="none" stroke="red" stroke-width="0.01"/>
  <polygon points="12.50416498004983,23.88763506862691 8.450390505403405,28.51007893765912 7.489921062340882,27.549609494596595 12.112364931373092,23.495835019950174" fill="none" stroke="red" stroke-width="0.01"/>
  <polygon points="13.635868197037755,24.081396693776817 9.587734322283993,30.139857178774676 8.451052993415962,29.267650918402445 13.255342299516249,23.789408902983652" fill="none" stroke="red" stroke-width="0.01"/>
  <polygon points="14.049951870025547,25.444663561001 11.661305386345724,30.288359472170615 10.527315833092256,29.6336502983415 13.527756298532044,25.143173807229594" fill="none" stroke="red" stroke-width="0.01"/>
  <polygon points="15.250783891997973,25.321178072956574 13.124171342344706,31.58597662571001 11.840995306650289,31.054467708813238 14.767134691253672,25.120844014577376" fill="none" stroke="red" stroke-width="0.01"/>
  <polygon points="16.23662772469971,25.583613355066213 14.932492117616572,32.139945795642774 13.586566854631666,31.779306208353326 15.735318509206113,25.449287955616423" fill="none" stroke="red" stroke-width="0.01"/>
  <polygon points="17.163432156099514,26.941111760460927 16.882509993061362,31.227155722313377 15.65597264485049,31.065679017037194 16.493932477869027,26.852970455687924" fill="none" stroke="red" stroke-width="0.01"/>
</svg>