<?xml version="1.0" encoding="utf-8"?>
<svg xmlns="http://www.w3.org/2000/svg" width="36in" height="36in" viewBox="0 0 36 36">
  <rect width="36" height="36" fill="white" stroke="black" stroke-width="0.01"/>
  <line x1="0" y1="18" x2="36" y2="18" stroke="gray" stroke-width="0.005" stroke-dasharray="0.1,0.1"/>
  <line x1="18" y1="0" x2="18" y2="36" stroke="gray" stroke-width="0.005" stroke-dasharray="0.1,0.1"/>
  <circle cx="18" cy="18" r="18" fill="none" stroke="green" stroke-width="0.01" opacity="0.3"/>
  <polygon points="12.758279433495634,23.72772149278429 6.892924251186953,28.228366818251992 6.166634713284184,27.141397710463053 12.569263065782646,23.444838507626933" fill="red" fill-opacity="0.3" stroke="red" stroke-width="0.02"/>
  <text x="9.596775365937354" y="25.635581132281565" font-size="0.3" text-anchor="middle">0</text>
  <polygon points="13.21545987789403,24.451712673676386 8.130782150102075,29.536390401468346 7.277551943127664,28.563467816906964 12.98241317056365,24.185973834420555" fill="none" stroke="red" stroke-width="0.01"/>
  <polygon points="14.0702253411622,24.73143807918336 9.221784891837665,31.05004869145271 8.210821628341092,30.163457704415872 13.842527180841557,24.531752151915406" fill="none" stroke="red" stroke-width="0.01"/>
  <polygon points="14.308467345733254,25.91464805715329 11.146748320504138,31.39090604810726 10.117949194723014,30.70348444955026 13.967414378568083,25.68676375009453" fill="none" stroke="red" stroke-width="0.01"/>
  <polygon points="15.53114914915384,25.327777667314656 12.267696133838307,33.20645019705679 11.028667111298212,32.5954287018711 15.292573958723622,25.210125403389448" fill="none" stroke="red" stroke-width="0.01"/>
  <polygon points="15.649513031930578,27.826936903238227 14.63328589881398,31.619548196059426 13.610078267881812,31.272216008037994 15.11264654762162,27.644695288698543" fill="none" stroke="red" stroke-width="0.01"/>
  <polygon points="16.654767699344013,28.32345532855703 16.209807774555525,31.703261507267054 15.183209147567995,31.49905834402426 16.065515609465642,28.20624580037591" fill="none" stroke="red" stroke-width="0.01"/>
  <polygon points="17.75,28.04418644093233 17.75,32.22080870713582 16.65543086726216,32.14906685588551 17.200589468011188,28.00817617215862" fill="none" stroke="red" stroke-width="0.01"/>
  <polygon points="18.631630152854058,26.733757667311213 19.512349511872593,33.42348536073291 18.25,33.50622411902417 18.25,26.758771029043977" fill="none" stroke="red" stroke-width="0.01"/>
  <polygon points="19.659387249758996,27.17956929398532 21.091887993207372,32.52573485041485 19.928927697023887,32.75706203609725 19.206496829076574,27.26965479972683" fill="none" stroke="red" stroke-width="0.01"/>
  <polygon points="20.596388986010332,26.94224492782415 22.680886198486235,31.974666368912377 21.563501155380457,32.35396748058487 20.153699913874984,27.09251761871277" fill="none" stroke="red" stroke-width="0.01"/>
  <polygon points="21.03182145144427,25.771994735542386 24.646937478533896,32.03355936971816 23.484022368148633,32.60704563726735 20.717132348859224,25.927182227104097" fill="none" stroke="red" stroke-width="0.01"/>
  <polygon points="22.59564555186238,26.420557737861714 25.318990874846524,29.969690461783077 24.3907881399223,30.58989570091771 22.153996193840307,26.715658404342836" fill="none" stroke="red" stroke-width="0.01"/>
  <polygon points="22.469888551129085,24.844167883886048 27.476762639688268,29.85104197244523 26.509250571971474,30.699527283494312 22.19873919502866,25.081959487141756" fill="none" stroke="red" stroke-width="0.01"/>
  <polygon points="23.3499334644939,24.440992376864205 28.39010142181479,28.30844927446331 27.573001085665922,29.24017363723634 23.080756886337976,24.747929437908393" fill="none" stroke="red" stroke-width="0.01"/>
  <polygon points="23.755919890394782,23.632582974911852 29.508182330538386,26.953653243178135 28.80918034832967,27.9997836378663 23.539615966987743,23.956304673169985" fill="none" stroke="red" stroke-width="0.01"/>
  <polygon points="25.32201226359425,19.568238128281198 32.67076371644981,22.61219064656296 32.076334277435095,23.817574307521802 25.187767943498073,19.84045868029267" fill="blue" fill-opacity="0.3" stroke="blue" stroke-width="0.02"/>
  <text x="28.814219550244307" y="21.459615440664656" font-size="0.3" text-anchor="middle">16</text>
  <polygon points="25.61631821444537,18.820331302125297 33.288715000524896,20.876143824966448 32.85694019993194,22.14811137086999 25.51851921247721,19.108437871462883" fill="none" stroke="blue" stroke-width="0.01"/>
  <polygon points="27.690832181525348,18.28722465868337 31.79443276997136,18.827473925253397 31.580914648501537,19.900902009603158 27.582937611571253,18.829647291199514" fill="none" stroke="blue" stroke-width="0.01"/>
  <polygon points="29.055796415330327,17.239637028918153 30.66774684841044,17.239637028918153 30.60697555869166,18.166827737320183 29.00881558502509,17.956425985242774" fill="none" stroke="blue" stroke-width="0.01"/>
  <polygon points="25.564382674516708,16.476316268034186 34.05140846920004,15.358978125075469 34.14190163472458,16.73963702891816 25.581641629016186,16.739637028918153" fill="none" stroke="blue" stroke-width="0.01"/>
  <polygon points="25.34906112373143,15.748192167544339 33.814791136341356,13.479806647325585 34.08732659735905,14.849934933504592 25.39793835413765,15.993914598231246" fill="none" stroke="blue" stroke-width="0.01"/>
  <polygon points="25.944264996030217,14.694486508702607 32.43119441637893,12.007512364637126 32.84359327924409,13.222400238620601 26.06143993572617,15.039672749960268" fill="none" stroke="blue" stroke-width="0.01"/>
  <polygon points="25.958120367356827,13.694052198257902 31.305981853576338,10.60646292960023 31.848948520136346,11.707490411350696 26.143827459907722,14.07062892947776" fill="none" stroke="blue" stroke-width="0.01"/>
  <polygon points="26.188042191996878,12.36467160875429 29.66075412332053,9.699966022373111 30.277459246926682,10.62293046422741 26.48664297400649,12.811559259846295" fill="none" stroke="blue" stroke-width="0.01"/>
  <polygon points="24.78936260840108,12.303827811110343 29.364395363602814,7.72879505590861 30.186544603444407,8.666276589946524 25.05349028286429,12.60500770088965" fill="none" stroke="blue" stroke-width="0.01"/>
  <polygon points="24.122486626874647,11.7019714222924 28.08550314012549,6.537267749235217 29.024946326404265,7.361137311920625 24.42170486441309,11.964378773911791" fill="none" stroke="blue" stroke-width="0.01"/>
  <polygon points="23.331240001137395,11.286747392850154 26.713544332625197,5.428424444052979 27.76633463153335,6.13187643199208 23.648301795175545,11.498601310526814" fill="none" stroke="blue" stroke-width="0.01"/>
  <polygon points="22.672766364657036,10.586736314153415 25.02838835235081,4.899761763638823 26.128263689173668,5.442160255197656 23.0504952408045,10.773011581705482" fill="none" stroke="blue" stroke-width="0.01"/>
  <polygon points="21.661194638067013,10.822887362787911 23.55600643118842,3.7513534800781283 24.789448495461237,4.17005064185677 21.987826689035334,10.933764003570387" fill="none" stroke="blue" stroke-width="0.01"/>
  <polygon points="20.84046229428107,10.622077966246085 21.794962231819383,3.371931140093521 23.071971679737175,3.6259441125450387 21.179303563229197,10.689477685218485" fill="none" stroke="blue" stroke-width="0.01"/>
  <polygon points="20.0,8.995526492190239 20.0,4.760204301905295 21.09840007152482,4.832197246149537 20.545579593201836,9.031285667970016" fill="none" stroke="blue" stroke-width="0.01"/>
  <polygon points="15.43004509924454,8.846136825370625 14.925975236028808,5.017346088748928 16.000000000000007,4.946950786568937 16.000000000000004,8.808780007526597" fill="green" fill-opacity="0.3" stroke="green" stroke-width="0.02"/>
  <text x="15.58900508381834" y="6.904803427053771" font-size="0.3" text-anchor="middle">32</text>
  <polygon points="14.697017898738798,10.227903097477219 13.051706858294821,4.087518700286303 14.267410645811253,3.8457001818789927 15.09716482808828,10.148308924460613" fill="none" stroke="green" stroke-width="0.01"/>
  <polygon points="13.668281702588782,10.103536218643034 11.554443112914644,5.0002784267841225 12.676576665363566,4.619365413391847 14.106222265380996,9.954875429474193" fill="none" stroke="green" stroke-width="0.01"/>
  <polygon points="12.42870147667037,9.870953835623315 10.392539593351458,6.344218001279829 11.37021722313663,5.862080750018145 12.928628059855521,9.624417327774099" fill="none" stroke="green" stroke-width="0.01"/>
  <polygon points="11.60853117987506,10.530087187353852 8.976832393416036,7.100390555165045 9.896848334794225,6.485655556590925 12.058367331443174,10.229516280312211" fill="none" stroke="green" stroke-width="0.01"/>
  <polygon points="10.930485064413014,11.316568702737895 7.622863744769633,8.008947383094515 8.47220864421394,7.264091897318909 11.31980158878592,10.975147274208712" fill="none" stroke="green" stroke-width="0.01"/>
  <polygon points="11.715860595190248,13.195351392846204 5.044104518501062,8.075932897989965 5.949890975968802,7.043081395480231 11.896351052027299,12.989541471538725" fill="none" stroke="green" stroke-width="0.01"/>
  <polygon points="10.465658323168114,13.36137067011968 4.770239455898718,10.07311905395402 5.4668564389382155,9.03055806276646 10.684347245744371,13.034079568360944" fill="none" stroke="green" stroke-width="0.01"/>
  <polygon points="9.747669015643185,14.025685298085667 4.25955500431275,11.752434042742792 4.795727087109508,10.665184613884207 9.940170691957322,13.635330513973939" fill="none" stroke="green" stroke-width="0.01"/>
  <polygon points="9.258479034981766,14.857445587373732 3.836487750047967,13.404627401207135 4.219283007779008,12.276948935740869 9.405257579811838,14.425049937598873" fill="none" stroke="green" stroke-width="0.01"/>
  <polygon points="9.30515654483301,15.823173802546899 3.20957850367029,15.02067572918894 3.448732615846369,13.818366816341836 9.387415124080842,15.409631998528097" fill="none" stroke="green" stroke-width="0.01"/>
  <polygon points="9.781452603481089,16.739637028918153 2.4950041327781385,16.739637028918153 2.5800484811698734,15.442111009710592 9.804160375113373,16.393183383399066" fill="none" stroke="green" stroke-width="0.01"/>
  <polygon points="8.869327850597163,17.709163711115732 3.5148810056860835,18.41409001144723 3.4379032902974433,17.239637028918153 8.838553445961782,17.239637028918153" fill="none" stroke="green" stroke-width="0.01"/>
  <polygon points="9.613309996745967,18.509113710603252 3.2228377431812447,20.221435590199416 2.977715658077935,18.989123651367315 9.537019390425362,18.12557493256945" fill="none" stroke="green" stroke-width="0.01"/>
  <polygon points="9.900235351599992,19.349197614089565 3.7243052359908546,21.90735162824331 3.3189832525626812,20.71331156880983 9.775983532467052,18.98316355828192" fill="none" stroke="green" stroke-width="0.01"/>
  <polygon points="9.227842540959717,20.755206393592186 5.508055238107117,22.902826594222287 5.019469663008037,21.91207305721581 8.987754356947903,20.26835571762835" fill="none" stroke="green" stroke-width="0.01"/>
  <circle cx="18.0" cy="21.5" r="0.2" fill="red" opacity="0.5"/>
  <text x="18.0" y="21.6" font-size="0.4" text-anchor="middle" fill="black">S0</text>
  <circle cx="16.095299461620748" cy="16.25" r="0.2" fill="blue" opacity="0.5"/>
  <text x="16.095299461620748" y="16.35" font-size="0.4" text-anchor="middle" fill="black">S1</text>
  <circle cx="19.904700538379252" cy="16.25" r="0.2" fill="green" opacity="0.5"/>
  <text x="19.904700538379252" y="16.35" font-size="0.4" text-anchor="middle" fill="black">S2</text>
</svg>