<svg xmlns="http://www.w3.org/2000/svg" xml:space="preserve" width="62" height="48" viewBox="0 0 16.404 12.7"><g style="fill:#000"><g style="fill:#000;stroke:red"><path d="M8.75 31.5h42.5v-3H8.75z" style="fill:#000;stroke:red;stroke-width:.01;stroke-linecap:round;stroke-linejoin:round;stroke-opacity:1" transform="matrix(.38589 0 0 .38473 -3.375 -5.192)"/></g><g style="fill:#000;stroke:#00f"><path d="M12.75 43.526V16.474h1.536v27.052zM15.286 41.563V18.437h1.535v23.126zM17.821 36.973V23.027h1.536v13.946zM20.357 35.756V24.244h1.536v11.512zM22.893 41.715v-23.43h1.536v23.43zM25.429 41.429V18.57h1.535V41.43zM27.964 46.5v-33H29.5v33zM30.5 39.33V20.67h1.536v18.66zM33.036 42.845v-25.69h1.535v25.69zM35.571 42.88V17.12h1.536v25.76zM38.107 41.8V18.2h1.536v23.6zM40.643 39.251V20.75h1.536V39.25zM43.179 42.306V17.694h1.535v24.612zM45.714 41.361V18.64h1.536V41.36z" style="fill:#000;stroke:#00f;stroke-width:.01;stroke-linecap:round;stroke-linejoin:round;stroke-opacity:1" transform="matrix(.38589 0 0 .38473 -3.375 -5.192)"/></g></g></svg>