<svg xmlns="http://www.w3.org/2000/svg" width="48" height="48" class="circular_3-icon" viewBox="0 0 48 48"><path d="m3.991 10.944 20.097 11.61 20.097-11.61C39.9 4.39 32.495.068 24.088.068S8.475 4.39 3.99 10.944" class="section top" style="stroke-width:1.33444" transform="matrix(.99917 0 0 1 -.068 -.068)"/><path d="M25.422 48.068c12.65-.694 22.686-11.156 22.686-23.98 0-3.897-.934-7.58-2.589-10.836l-20.097 11.61Z" class="section right" style="stroke-width:1.33444" transform="matrix(.99917 0 0 1 -.068 -.068)"/><path d="M22.753 48.068V24.862L2.657 13.252a23.85 23.85 0 0 0-2.59 10.836c0 12.824 10.036 23.3 22.686 23.98" class="section left" style="stroke-width:1.33444" transform="matrix(.99917 0 0 1 -.068 -.068)"/></svg>