<svg xmlns="http://www.w3.org/2000/svg" xml:space="preserve" width="48" height="48" viewBox="0 0 12.7 12.7"><g fill="none" style="fill:#000"><g stroke="red" stroke-width=".02" style="fill:#000"><path d="M17 .028a18 18 0 0 0 0 35.944M19 35.972A18 18 0 0 0 19 .028M17 35.972V.028M19 .028v35.944" style="fill:#000" transform="matrix(.35258 0 0 .35313 .004 -.006)"/></g><g stroke="#00f" stroke-width=".01" style="fill:#000"><path d="m21.37 3.016-1.271-.083v6.608l.409.027zM23.296 3.468l-1.261-.251-.888 6.746.388.078zM25.113 4.211l-1.223-.416-1.783 6.654.37.126zM26.698 5.347l-1.14-.561-2.51 6.059.37.183zM27.704 7.146l-.97-.648-2.485 4.304.429.287zM29.177 8.168l-.91-.798-3.431 4.472.355.312zM30.463 9.432l-.82-.935-4.334 4.335.29.332zM30.95 11.224l-.654-.978-4.072 3.124.281.421zM30.85 13.12l-.471-.955-2.958 1.708.273.554zM30.783 14.779l-.319-.94-2.139.886.222.653zM30.613 16.316l-.182-.917-1.374.368.146.734zM30.551 17.75l-.06-.912-1.09.144.05.768zM32.136 19.378l.074-1.128h-4.418l-.036.552zM32.291 21.099l.231-1.163-5.229-.689-.097.487zM32.285 22.915l.402-1.184-6.044-1.619-.139.409zM31.577 24.527l.551-1.117-5.712-2.366-.194.392zM30.222 25.698l.648-.969-4.285-2.474-.288.431zM28.99 26.849l.74-.843-3.398-2.607-.37.422zM28.295 28.666l.915-.801-4.051-4.052-.351.308zM27.223 30.35l1.077-.719-4.218-5.497-.322.216zM25.646 31.426l1.166-.576-3.508-6.076-.343.169zM24.165 33.232l1.355-.46-3.45-8.33-.239.081zM22.079 33.123l1.306-.259-1.938-7.236-.345.069zM20.099 33.882l1.378-.09-1.076-8.168-.302.019zM14.821 31.534l1.08.071v-3.684l-.6-.039zM13.061 31.198l1.085.215.527-4.007-.566-.112zM11.133 31.195l1.144.388 1.45-5.411-.45-.153zM9.341 30.584l1.131.558 2.45-5.915-.38-.187zM7.649 29.697l1.086.725 3.547-6.144-.314-.21zM6.5 28.155l.955.837 3.987-5.196-.311-.273zM5.849 26.329l.785.896 3.78-3.779-.325-.37zM4.926 24.848l.664.994 4.301-3.3-.271-.405zM3.697 23.482l.562 1.14 5.683-3.281-.183-.37zM2.821 21.863l.424 1.247 6.721-2.784-.117-.346zM3.41 19.945l.233 1.172 5.227-1.4-.095-.479zM3.75 18.25l.074 1.134 4.46-.588-.035-.546zM2.676 16.465l-.084 1.285h6.814l.026-.395zM2.785 14.653l-.256 1.286 7.127.939.072-.365zM4.19 13.281l-.38 1.121 5.05 1.353.16-.473zM5.192 11.917l-.499 1.013 4.07 1.686.245-.496zM6.383 10.766l-.592.886 2.964 1.711.343-.513zM6.252 8.392l-.832.949 5.099 3.913.277-.317zM6.88 6.259l-1.048.919 5.967 5.966.218-.191zM8.889 5.845l-1.052.703 3.944 5.139.347-.232zM11.165 6.533l-.917.452 1.388 2.405.592-.292zM12.212 4.176l-1.174.399 2.334 5.636.419-.143zM14.072 4.024l-1.158.231 1.34 4.999.493-.098zM15.901 3.044l-1.257.082.834 6.332.423-.028z" style="fill:#000" transform="matrix(.35258 0 0 .35313 .004 -.006)"/></g></g></svg>