<?xml version="1.0" encoding="UTF-8" standalone="no"?>
<!-- Created with Inkscape (http://www.inkscape.org/) -->

<svg
   width="12.7mm"
   height="12.700017mm"
   viewBox="0 0 12.7 12.700017"
   version="1.1"
   id="svg1"
   xml:space="preserve"
   xmlns:inkscape="http://www.inkscape.org/namespaces/inkscape"
   xmlns:sodipodi="http://sodipodi.sourceforge.net/DTD/sodipodi-0.dtd"
   xmlns="http://www.w3.org/2000/svg"
   xmlns:svg="http://www.w3.org/2000/svg"><sodipodi:namedview
     id="namedview1"
     pagecolor="#ffffff"
     bordercolor="#000000"
     borderopacity="0.25"
     inkscape:showpageshadow="2"
     inkscape:pageopacity="0.0"
     inkscape:pagecheckerboard="0"
     inkscape:deskcolor="#d1d1d1"
     inkscape:document-units="mm"><inkscape:page
       x="0"
       y="0"
       width="12.7"
       height="12.700017"
       id="page2"
       margin="0"
       bleed="0" /></sodipodi:namedview><defs
     id="defs1" /><g
     inkscape:label="Layer 1"
     inkscape:groupmode="layer"
     id="layer1"
     transform="translate(-82.973411,-154.36739)"><g
       id="g75"
       transform="matrix(0.3525819,0,0,0.35312767,82.976941,154.3611)"
       style="fill:#000000"
       inkscape:export-filename="circular_2.svg"
       inkscape:export-xdpi="96"
       inkscape:export-ydpi="96"><g
         fill="none"
         id="dovetails"
         stroke="#800080"
         stroke-width="0.01"
         style="fill:#000000" /><g
         fill="none"
         id="frame"
         stroke="#ff0000"
         stroke-width="0.02"
         style="fill:#000000"><path
           d="M 17,0.02779924 A 18,18 0 0 0 17,35.972201"
           fill="none"
           id="path1"
           style="fill:#000000" /><path
           d="M 19,35.972201 A 18,18 0 0 0 19,0.02779924"
           fill="none"
           id="path2"
           style="fill:#000000" /><path
           d="M 17,35.972201 V 0.02779924"
           fill="none"
           id="path3"
           style="fill:#000000" /><path
           d="M 19,0.02779924 V 35.972201"
           fill="none"
           id="path4"
           style="fill:#000000" /></g><g
         fill="none"
         id="slots"
         stroke="#0000ff"
         stroke-width="0.01"
         style="fill:#000000"><polygon
           points="21.370319,3.0161381 20.099329,2.932833 20.099329,9.5413805 20.507731,9.5681486 "
           id="polygon4"
           style="fill:#000000" /><polygon
           points="23.296492,3.4678617 22.034677,3.2168711 21.146508,9.9631866 21.53535,10.040532 "
           id="polygon5"
           style="fill:#000000" /><polygon
           points="25.11313,4.2105259 23.889643,3.7952082 22.106655,10.449411 22.476848,10.575074 "
           id="polygon6"
           style="fill:#000000" /><polygon
           points="26.697829,5.3474604 25.558364,4.7855388 23.048291,10.845393 23.418259,11.027842 "
           id="polygon7"
           style="fill:#000000" /><polygon
           points="27.703956,7.1459428 26.733994,6.4978352 24.248907,10.802132 24.678306,11.089047 "
           id="polygon8"
           style="fill:#000000" /><polygon
           points="29.177238,8.168007 28.267377,7.3700804 24.835752,11.842261 25.191235,12.154011 "
           id="polygon9"
           style="fill:#000000" /><polygon
           points="30.462681,9.4315081 29.643473,8.4973798 25.308502,12.83235 25.59897,13.163565 "
           id="polygon10"
           style="fill:#000000" /><polygon
           points="30.949732,11.224474 30.295722,10.245678 26.223732,13.370225 26.504744,13.790789 "
           id="polygon11"
           style="fill:#000000" /><polygon
           points="30.84997,13.11978 30.378973,12.164691 27.420687,13.872658 27.694059,14.427001 "
           id="polygon12"
           style="fill:#000000" /><polygon
           points="30.783325,14.778971 30.464164,13.838751 28.325274,14.724708 28.547094,15.378167 "
           id="polygon13"
           style="fill:#000000" /><polygon
           points="30.612918,16.315653 30.4306,15.399075 29.056563,15.767247 29.20258,16.501327 "
           id="polygon14"
           style="fill:#000000" /><polygon
           points="30.550847,17.749772 30.491106,16.838293 29.400615,16.981859 29.450946,17.749772 "
           id="polygon15"
           style="fill:#000000" /><polygon
           points="32.135909,19.378249 32.209844,18.250228 27.79195,18.250228 27.755811,18.801598 "
           id="polygon16"
           style="fill:#000000" /><polygon
           points="32.29078,21.099359 32.522243,19.935715 27.293256,19.247305 27.196383,19.734319 "
           id="polygon17"
           style="fill:#000000" /><polygon
           points="32.284956,22.915446 32.686983,21.731112 26.643436,20.111749 26.504482,20.521095 "
           id="polygon18"
           style="fill:#000000" /><polygon
           points="31.577179,24.527094 32.128222,23.409689 26.415808,21.04353 26.222481,21.435558 "
           id="polygon19"
           style="fill:#000000" /><polygon
           points="30.222303,25.697986 30.869589,24.729255 26.584888,22.255482 26.297151,22.686111 "
           id="polygon20"
           style="fill:#000000" /><polygon
           points="28.990026,26.849173 29.729533,26.005927 26.332119,23.399 25.961949,23.821097 "
           id="polygon21"
           style="fill:#000000" /><polygon
           points="28.295434,28.666484 29.209828,27.864582 25.158645,23.8134 24.807696,24.121175 "
           id="polygon22"
           style="fill:#000000" /><polygon
           points="27.223376,30.349798 28.299789,29.630562 24.082473,24.134449 23.759526,24.350235 "
           id="polygon23"
           style="fill:#000000" /><polygon
           points="25.645829,31.42562 26.812107,30.850475 23.303981,24.774223 22.960826,24.943448 "
           id="polygon24"
           style="fill:#000000" /><polygon
           points="24.164948,33.232243 25.520189,32.772201 22.069789,24.442199 21.83135,24.523138 "
           id="polygon25"
           style="fill:#000000" /><polygon
           points="22.079466,33.123334 23.385303,32.863586 21.446539,25.62802 21.101719,25.696609 "
           id="polygon26"
           style="fill:#000000" /><polygon
           points="20.099329,33.882325 21.476719,33.792046 20.401331,25.623667 20.099329,25.643461 "
           id="polygon27"
           style="fill:#000000" /><polygon
           points="14.820544,31.534107 15.900671,31.604902 15.900671,27.920885 15.301405,27.881607 "
           id="polygon28"
           style="fill:#000000" /><polygon
           points="13.061054,31.19776 14.145638,31.413497 14.673177,27.406445 14.107104,27.293846 "
           id="polygon29"
           style="fill:#000000" /><polygon
           points="11.13309,31.195046 12.276882,31.583311 13.72682,26.17207 13.276932,26.019354 "
           id="polygon30"
           style="fill:#000000" /><polygon
           points="9.3414688,30.584474 10.471713,31.141849 12.921632,25.227219 12.542443,25.040224 "
           id="polygon31"
           style="fill:#000000" /><polygon
           points="7.6494286,29.696743 8.7349146,30.422042 12.282184,24.277991 11.96831,24.068267 "
           id="polygon32"
           style="fill:#000000" /><polygon
           points="6.5001984,28.154556 7.4549218,28.991826 11.441948,23.795832 11.131329,23.523426 "
           id="polygon33"
           style="fill:#000000" /><polygon
           points="5.8491235,26.329236 6.6344353,27.224712 10.413589,23.445558 10.089225,23.075691 "
           id="polygon34"
           style="fill:#000000" /><polygon
           points="4.925549,24.847532 5.5900253,25.841991 9.8905205,22.542105 9.6199745,22.137204 "
           id="polygon35"
           style="fill:#000000" /><polygon
           points="3.6966235,23.48224 4.258635,24.621887 9.9417051,21.340765 9.7593466,20.970978 "
           id="polygon36"
           style="fill:#000000" /><polygon
           points="2.8210735,21.862928 3.2445146,23.110345 9.9660474,20.326195 9.8485072,19.979933 "
           id="polygon37"
           style="fill:#000000" /><polygon
           points="3.409692,19.944676 3.6429071,21.117127 8.8699304,19.71655 8.7748093,19.238345 "
           id="polygon38"
           style="fill:#000000" /><polygon
           points="3.7495005,18.250228 3.8237827,19.383556 8.2844968,18.796292 8.2487058,18.250228 "
           id="polygon39"
           style="fill:#000000" /><polygon
           points="2.6763908,16.465387 2.5922077,17.749772 9.4059986,17.749772 9.4318887,17.354765 "
           id="polygon40"
           style="fill:#000000" /><polygon
           points="2.7847958,14.652943 2.52891,15.939367 9.6555913,16.877613 9.7280418,16.51338 "
           id="polygon41"
           style="fill:#000000" /><polygon
           points="4.190317,13.281419 3.8099199,14.402032 8.8596608,15.755106 9.020245,15.28204 "
           id="polygon42"
           style="fill:#000000" /><polygon
           points="5.1924474,11.91725 4.6928185,12.930397 8.7631516,14.616384 9.0078927,14.120098 "
           id="polygon43"
           style="fill:#000000" /><polygon
           points="6.3827117,10.766258 5.7908464,11.652047 8.7546771,13.363216 9.0978342,12.849645 "
           id="polygon44"
           style="fill:#000000" /><polygon
           points="6.2516054,8.392458 5.4195995,9.341179 10.518749,13.253894 10.796419,12.937272 "
           id="polygon45"
           style="fill:#000000" /><polygon
           points="6.879985,6.2589014 5.8323805,7.1776259 11.799146,13.144392 12.016885,12.95344 "
           id="polygon46"
           style="fill:#000000" /><polygon
           points="8.8889839,5.8448142 7.8370116,6.5477197 11.780727,11.68727 12.128114,11.455153 "
           id="polygon47"
           style="fill:#000000" /><polygon
           points="11.165323,6.5326751 10.247715,6.9851895 11.636197,9.3901124 12.228022,9.0982569 "
           id="polygon48"
           style="fill:#000000" /><polygon
           points="12.212431,4.1761524 11.037794,4.5748879 13.372229,10.210712 13.791271,10.068466 "
           id="polygon49"
           style="fill:#000000" /><polygon
           points="14.071629,4.0243442 12.914301,4.254551 14.253857,9.2538428 14.747186,9.1557135 "
           id="polygon50"
           style="fill:#000000" /><polygon
           points="15.900671,3.0440141 14.644193,3.126368 15.477757,9.4579186 15.900671,9.4301994 "
           id="polygon51"
           style="fill:#000000" /></g></g></g></svg>
