<svg xmlns="http://www.w3.org/2000/svg" xml:space="preserve" width="32" height="32" viewBox="0 0 8.467 8.467"><g fill="none" style="fill:#000"><g stroke="#00f" stroke-width=".01" style="fill:#000"><path d="M2.286 31.526H.75V4.474h1.536zM4.821 29.563H3.286V6.437h1.535zM7.357 24.973H5.821V11.027h1.536zM9.893 23.756H8.357V12.244h1.536zM12.429 29.715h-1.536V6.285h1.536zM14.964 29.429h-1.535V6.571h1.535zM17.5 34.5h-1.536v-33H17.5zM20.036 27.329H18.5V8.671h1.536zM22.571 30.845h-1.535V5.155h1.535zM25.107 30.88h-1.536V5.12h1.536zM27.643 29.799h-1.536V6.201h1.536zM30.179 27.251h-1.536V8.749h1.536zM32.714 30.306h-1.535V5.694h1.535zM35.25 29.361h-1.536V6.639h1.536z" style="fill:#000" transform="matrix(.24534 0 0 .25649 -.183 -.383)"/></g></g></svg>