<?xml version="1.0" encoding="UTF-8" standalone="no"?>
<!-- Created with Inkscape (http://www.inkscape.org/) -->

<svg
   width="8.4666662mm"
   height="8.466671mm"
   viewBox="0 0 8.4666662 8.466671"
   version="1.1"
   id="svg1"
   xml:space="preserve"
   xmlns:inkscape="http://www.inkscape.org/namespaces/inkscape"
   xmlns:sodipodi="http://sodipodi.sourceforge.net/DTD/sodipodi-0.dtd"
   xmlns="http://www.w3.org/2000/svg"
   xmlns:svg="http://www.w3.org/2000/svg"><sodipodi:namedview
     id="namedview1"
     pagecolor="#ffffff"
     bordercolor="#000000"
     borderopacity="0.25"
     inkscape:showpageshadow="2"
     inkscape:pageopacity="0.0"
     inkscape:pagecheckerboard="0"
     inkscape:deskcolor="#d1d1d1"
     inkscape:document-units="mm"><inkscape:page
       x="0"
       y="0"
       width="8.4666662"
       height="8.466671"
       id="page2"
       margin="0"
       bleed="0" /></sodipodi:namedview><defs
     id="defs1" /><g
     inkscape:label="Layer 1"
     inkscape:groupmode="layer"
     id="layer1"
     transform="translate(106.10887,35.567889)"><g
       id="g75"
       transform="matrix(0.2453395,0,0,0.25648804,-106.29165,-35.95134)"
       style="fill:#000000"><g
         fill="none"
         id="dovetails"
         stroke="#800080"
         stroke-width="0.01"
         style="fill:#000000" /><g
         fill="none"
         id="frame"
         stroke="#ff0000"
         stroke-width="0.02"
         style="fill:#000000" /><g
         fill="none"
         id="slots"
         stroke="#0000ff"
         stroke-width="0.01"
         style="fill:#000000"><polygon
           points="2.2857143,31.525609 0.75,31.525609 0.75,4.4743906 2.2857143,4.4743906 "
           id="polygon1"
           style="fill:#000000" /><polygon
           points="4.8214286,29.562609 3.2857143,29.562609 3.2857143,6.437391 4.8214286,6.437391 "
           id="polygon2"
           style="fill:#000000" /><polygon
           points="7.3571429,24.972889 5.8214286,24.972889 5.8214286,11.027111 7.3571429,11.027111 "
           id="polygon3"
           style="fill:#000000" /><polygon
           points="9.8928571,23.75564 8.3571429,23.75564 8.3571429,12.24436 9.8928571,12.24436 "
           id="polygon4"
           style="fill:#000000" /><polygon
           points="12.428571,29.714977 10.892857,29.714977 10.892857,6.2850234 12.428571,6.2850234 "
           id="polygon5"
           style="fill:#000000" /><polygon
           points="14.964286,29.428627 13.428571,29.428627 13.428571,6.5713733 14.964286,6.5713733 "
           id="polygon6"
           style="fill:#000000" /><polygon
           points="17.5,34.5 15.964286,34.5 15.964286,1.5 17.5,1.5 "
           id="polygon7"
           style="fill:#000000" /><polygon
           points="20.035714,27.329141 18.5,27.329141 18.5,8.6708588 20.035714,8.6708588 "
           id="polygon8"
           style="fill:#000000" /><polygon
           points="22.571429,30.844745 21.035714,30.844745 21.035714,5.1552554 22.571429,5.1552554 "
           id="polygon9"
           style="fill:#000000" /><polygon
           points="25.107143,30.879916 23.571429,30.879916 23.571429,5.1200841 25.107143,5.1200841 "
           id="polygon10"
           style="fill:#000000" /><polygon
           points="27.642857,29.799353 26.107143,29.799353 26.107143,6.2006468 27.642857,6.2006468 "
           id="polygon11"
           style="fill:#000000" /><polygon
           points="30.178571,27.251363 28.642857,27.251363 28.642857,8.7486374 30.178571,8.7486374 "
           id="polygon12"
           style="fill:#000000" /><polygon
           points="32.714286,30.306073 31.178571,30.306073 31.178571,5.6939269 32.714286,5.6939269 "
           id="polygon13"
           style="fill:#000000" /><polygon
           points="35.25,29.36134 33.714286,29.36134 33.714286,6.63866 35.25,6.63866 "
           id="polygon14"
           style="fill:#000000" /></g></g></g></svg>
