<?xml version="1.0" encoding="UTF-8" standalone="no"?>
<!-- Created with Inkscape (http://www.inkscape.org/) -->

<svg
   width="7.4083333mm"
   height="7.4083333mm"
   viewBox="0 0 7.4083333 7.4083333"
   version="1.1"
   id="svg1"
   xml:space="preserve"
   inkscape:export-filename="plain_svg_panel2.svg"
   inkscape:export-xdpi="96"
   inkscape:export-ydpi="96"
   xmlns:inkscape="http://www.inkscape.org/namespaces/inkscape"
   xmlns:sodipodi="http://sodipodi.sourceforge.net/DTD/sodipodi-0.dtd"
   xmlns="http://www.w3.org/2000/svg"
   xmlns:svg="http://www.w3.org/2000/svg"><sodipodi:namedview
     id="namedview1"
     pagecolor="#ffffff"
     bordercolor="#000000"
     borderopacity="0.25"
     inkscape:showpageshadow="2"
     inkscape:pageopacity="0.0"
     inkscape:pagecheckerboard="0"
     inkscape:deskcolor="#d1d1d1"
     inkscape:document-units="mm"
     showgrid="false"><inkscape:grid
       id="grid122"
       units="mm"
       originx="356.14568"
       originy="297.91462"
       spacingx="0.99999998"
       spacingy="1"
       empcolor="#0099e5"
       empopacity="0.30196078"
       color="#0099e5"
       opacity="0.14901961"
       empspacing="5"
       enabled="true"
       visible="false" /><inkscape:page
       x="0"
       y="0"
       width="7.4083333"
       height="7.4083333"
       id="page2"
       margin="0"
       bleed="0" /></sodipodi:namedview><defs
     id="defs1" /><g
     inkscape:label="Layer 1"
     inkscape:groupmode="layer"
     id="layer1"
     transform="translate(356.14569,297.91461)"><path
       id="path1"
       style="fill:#000000;stroke:none;stroke-width:0.00411672"
       d="m -352.71835,-297.90423 a 3.7041667,3.7059421 0 0 0 -3.42735,3.69558 3.7041667,3.7059421 0 0 0 7.40833,0 3.7041667,3.7059421 0 0 0 -3.98098,-3.69558 z m -0.0394,0.50409 h 0.63237 l -0.26318,2.00003 h -0.10601 z m 0.83674,0.0243 0.61149,0.16392 -0.77363,1.86861 -0.10173,-0.0273 z m -1.02261,0.14061 0.22687,1.72403 -0.13748,0.0368 -0.66513,-1.60653 z m 1.74251,0.29946 0.49997,0.2888 -0.9707,1.26565 -0.13948,-0.0806 z m -2.43114,0.12021 0.51067,1.23347 -0.16888,0.0976 -0.81237,-1.05921 z m -0.91019,0.0368 1.36507,1.77985 -0.0541,0.0541 -1.779,-1.36573 z m 4.03458,0.21796 0.41733,0.41753 -1.34328,1.03123 -0.10478,-0.10483 z m -4.32574,0.64557 1.17473,0.90183 -0.088,0.15242 -1.368,-0.56692 z m 4.53845,0.18855 0.24082,0.41732 -0.79594,0.32985 -0.12837,-0.22245 z m -4.8834,0.49523 1.33794,0.55446 -0.0466,0.17411 -1.43579,-0.18912 z m 4.98016,0.20464 0.10836,0.40461 -0.37593,0.0495 -0.0827,-0.30895 z m -5.47703,0.49606 2.08685,0.27487 v 0.0945 l -2.08685,0.27487 z m 6.14652,0.0423 v 0.55963 l -1.44448,-0.19027 v -0.1791 z m -1.67611,0.54652 1.85403,0.2442 -0.15873,0.59267 -1.72768,-0.71598 z m -2.66159,0.0248 0.0452,0.16885 -1.3764,0.5704 -0.14589,-0.5447 z m 0.39668,0.24605 0.0488,0.0846 -1.65029,1.26692 -0.32035,-0.55513 z m 2.37669,0.1326 1.28186,0.53122 -0.27514,0.4768 -1.10077,-0.84505 z m -0.42367,0.16943 1.50947,1.15881 -0.43667,0.43687 -1.15825,-1.51019 z m -0.40318,0.009 1.46718,1.91299 -0.59216,0.34205 -0.92231,-2.22772 z m -1.55894,0.0772 0.11169,0.11175 -0.98515,1.28449 -0.41042,-0.41062 z m 1.33024,0.05 0.90489,2.18564 -0.65474,0.17552 -0.30863,-2.34548 z m -0.92357,0.0154 0.0879,0.0508 -0.7849,1.8958 -0.55157,-0.3186 z m 0.23083,0.24348 0.1291,0.0346 -0.23553,1.78994 -0.58412,-0.15659 z m 0.29116,0.38046 h 0.21759 l 0.15159,1.15198 h -0.52077 z" /></g></svg>
