<svg xmlns="http://www.w3.org/2000/svg" xml:space="preserve" width="28" height="28" viewBox="0 0 7.408 7.408"><path d="M-352.718-297.904a3.704 3.706 0 0 0-3.428 3.695 3.704 3.706 0 0 0 7.409 0 3.704 3.706 0 0 0-3.981-3.695m-.04.504h.633l-.264 2h-.106zm.837.024.611.164-.773 1.869-.102-.028zm-1.023.14.227 1.725-.137.037-.665-1.607zm1.743.3.5.289-.97 1.266-.14-.08zm-2.431.12.51 1.234-.168.098-.813-1.06zm-.91.037 1.365 1.78-.054.054-1.78-1.366zm4.034.218.417.418-1.343 1.031-.105-.105zm-4.326.646 1.175.902-.088.152-1.368-.567zm4.539.188.24.418-.795.33-.129-.223zm-4.884.496 1.338.554-.046.174-1.436-.189zm4.98.204.109.405-.376.05-.083-.31zm-5.476.496 2.086.275v.095l-2.086.274zm6.146.043v.56l-1.444-.191v-.18zm-1.676.546 1.854.244-.159.593-1.727-.716zm-2.662.025.046.169-1.377.57-.146-.545zm.397.246.049.085-1.65 1.266-.32-.555zm2.377.133 1.282.53-.276.478-1.1-.846zm-.424.169 1.51 1.159-.437.437-1.158-1.51zm-.403.009 1.467 1.913-.592.342-.922-2.228zm-1.559.077.112.112-.985 1.284-.41-.41zm1.33.05.905 2.186-.655.175-.308-2.345zm-.923.016.088.05-.785 1.896-.552-.318zm.23.243.13.035-.236 1.79-.584-.157zm.292.38h.217l.152 1.152h-.521z" style="fill:#000;stroke:none;stroke-width:.00411672" transform="translate(356.146 297.915)"/></svg>