<svg xmlns="http://www.w3.org/2000/svg" xml:space="preserve" width="32" height="32" viewBox="0 0 8.467 8.467"><g fill="none" style="fill:#000"><g stroke="#00f" stroke-width=".01" style="fill:#000"><path d="M17.742 12.213h.516l1.278-9.714h-3.072zM19.247 12.356l.495.133 3.759-9.076-2.971-.796zM21.063 11.913l.677.391 4.717-6.147-2.429-1.403zM22.388 13.103l.509.509 6.528-5.009-2.028-2.028zM25.109 13.175l.624 1.081 3.868-1.602-1.171-2.027zM27.198 14.731l.402 1.501 1.827-.241-.527-1.965zM25.135 17.565v.87l7.019.924v-2.718zM24.009 19.295l-.157.588 8.395 3.477.771-2.878zM24.552 21.255l-.457.792 5.349 4.104 1.337-2.316zM22.493 22.078l-.415.415 5.628 7.335 2.122-2.122zM20.534 22.124l-.23.133 4.482 10.82 2.878-1.662zM19.423 22.741l-.284.077 1.499 11.392 3.182-.853zM18.529 25.847h-1.058l-.736 5.595h2.53zM16.684 24.167l-.628-.168-3.355 8.101 2.838.761zM15.362 23.063l-.427-.247-6.068 7.907 2.681 1.548zM13.501 23.041l-.542-.542-6.239 4.787 1.994 1.994zM13.24 21.022l-.237-.411-9.339 3.868 1.557 2.697zM11.295 20.236l-.22-.82-7.177.945.708 2.646zM12.426 18.229v-.458L2.285 16.435v3.13zM10.975 16.571l.226-.846L4.7 13.032l-.702 2.62zM11.657 14.832l.428-.741-5.709-4.38-1.366 2.367zM14.162 14.424l.262-.262-6.633-8.645-2.274 2.274zM13.875 11.803l.821-.474-2.482-5.991-2.287 1.32zM15.995 11.852l.668-.179L15.56 3.3l-2.797.749z" style="fill:#000" transform="matrix(.2754 0 0 .2669 -.628 -.666)"/></g></g></svg>