<?xml version="1.0" encoding="UTF-8" standalone="no"?>
<!-- Created with Inkscape (http://www.inkscape.org/) -->

<svg
   width="8.4666662mm"
   height="8.4667234mm"
   viewBox="0 0 8.4666662 8.4667234"
   version="1.1"
   id="svg1"
   xml:space="preserve"
   xmlns:inkscape="http://www.inkscape.org/namespaces/inkscape"
   xmlns:sodipodi="http://sodipodi.sourceforge.net/DTD/sodipodi-0.dtd"
   xmlns="http://www.w3.org/2000/svg"
   xmlns:svg="http://www.w3.org/2000/svg"><sodipodi:namedview
     id="namedview1"
     pagecolor="#ffffff"
     bordercolor="#000000"
     borderopacity="0.25"
     inkscape:showpageshadow="2"
     inkscape:pageopacity="0.0"
     inkscape:pagecheckerboard="0"
     inkscape:deskcolor="#d1d1d1"
     inkscape:document-units="mm"><inkscape:page
       x="0"
       y="-1.1205541e-22"
       width="8.4666662"
       height="8.4667234"
       id="page2"
       margin="0"
       bleed="0" /></sodipodi:namedview><defs
     id="defs1" /><g
     inkscape:label="Layer 1"
     inkscape:groupmode="layer"
     id="layer1"
     transform="translate(-92.040649,-128.37072)"><g
       id="g75"
       transform="matrix(0.2753905,0,0,0.26690088,91.412642,127.70516)"
       style="fill:#000000"><g
         fill="none"
         id="dovetails"
         stroke="#800080"
         stroke-width="0.01"
         style="fill:#000000" /><g
         fill="none"
         id="frame"
         stroke="#ff0000"
         stroke-width="0.02"
         style="fill:#000000" /><g
         fill="none"
         id="slots"
         stroke="#0000ff"
         stroke-width="0.01"
         style="fill:#000000"><polygon
           points="17.742442,12.213004 18.257558,12.213004 19.536472,2.4986851 16.463528,2.4986851 "
           id="polygon1"
           style="fill:#000000" /><polygon
           points="19.247333,12.356213 19.741671,12.488671 23.501049,3.4127289 20.529587,2.6165279 "
           id="polygon2"
           style="fill:#000000" /><polygon
           points="21.062615,11.912756 21.7404,12.304076 26.457431,6.1567214 24.027865,4.7540105 "
           id="polygon3"
           style="fill:#000000" /><polygon
           points="22.387891,13.102929 22.897071,13.612109 29.424609,8.6033532 27.396647,6.5753912 "
           id="polygon4"
           style="fill:#000000" /><polygon
           points="25.108917,13.175372 25.732709,14.255811 29.600524,12.653709 28.430286,10.626797 "
           id="polygon5"
           style="fill:#000000" /><polygon
           points="27.198142,14.731201 27.600224,16.231792 29.427035,15.991288 28.900458,14.026078 "
           id="polygon6"
           style="fill:#000000" /><polygon
           points="25.134507,17.565039 25.134507,18.434961 32.153804,19.359069 32.153804,16.640931 "
           id="polygon7"
           style="fill:#000000" /><polygon
           points="24.008902,19.295401 23.851562,19.8826 32.247038,23.36012 33.018357,20.481519 "
           id="polygon8"
           style="fill:#000000" /><polygon
           points="24.552073,21.255154 24.095082,22.046685 29.444121,26.151146 30.78116,23.835326 "
           id="polygon9"
           style="fill:#000000" /><polygon
           points="22.493286,22.078056 22.078056,22.493286 27.706482,29.828394 29.828394,27.706482 "
           id="polygon10"
           style="fill:#000000" /><polygon
           points="20.534103,22.123848 20.304305,22.256522 24.786174,33.076712 27.663728,31.415355 "
           id="polygon11"
           style="fill:#000000" /><polygon
           points="19.422751,22.741388 19.138555,22.817538 20.638365,34.20972 23.819969,33.357212 "
           id="polygon12"
           style="fill:#000000" /><polygon
           points="18.528703,25.846546 17.471297,25.846546 16.734673,31.441765 19.265327,31.441765 "
           id="polygon13"
           style="fill:#000000" /><polygon
           points="16.683825,24.166691 16.056495,23.998598 12.700784,32.100002 15.539255,32.860568 "
           id="polygon14"
           style="fill:#000000" /><polygon
           points="15.361817,23.062573 14.934774,22.81602 8.8673945,30.723183 11.547703,32.27066 "
           id="polygon15"
           style="fill:#000000" /><polygon
           points="13.501347,23.041419 12.958581,22.498653 6.7197389,27.285885 8.7141151,29.280261 "
           id="polygon16"
           style="fill:#000000" /><polygon
           points="13.240108,21.022157 13.002789,20.611109 3.6639775,24.479371 5.2206888,27.175674 "
           id="polygon17"
           style="fill:#000000" /><polygon
           points="11.29494,20.236131 11.075182,19.415984 3.8975591,20.360936 4.6064599,23.00659 "
           id="polygon18"
           style="fill:#000000" /><polygon
           points="12.426247,18.229484 12.426247,17.770516 2.2854425,16.435454 2.2854425,19.564546 "
           id="polygon19"
           style="fill:#000000" /><polygon
           points="10.974899,16.570813 11.20149,15.725161 4.6999095,13.032118 3.9978429,15.652267 "
           id="polygon20"
           style="fill:#000000" /><polygon
           points="11.657217,14.831537 12.084639,14.09122 6.376158,9.7109486 5.0095499,12.077983 "
           id="polygon21"
           style="fill:#000000" /><polygon
           points="14.161588,14.424447 14.424447,14.161588 7.791015,5.5167315 5.5167315,7.791015 "
           id="polygon22"
           style="fill:#000000" /><polygon
           points="13.874899,11.802723 14.695552,11.328919 12.213969,5.3378475 9.92727,6.6580736 "
           id="polygon23"
           style="fill:#000000" /><polygon
           points="15.994701,11.852218 16.662749,11.673215 15.560331,3.2995259 12.762578,4.0491817 "
           id="polygon24"
           style="fill:#000000" /></g></g></g></svg>
