{
	"asset":{
		"generator":"Khronos glTF Blender I/O v4.5.48",
		"version":"2.0"
	},
	"scene":0,
	"scenes":[
		{
			"name":"Scene",
			"nodes":[
				0
			]
		}
	],
	"nodes":[
		{
			"mesh":0,
			"name":"CircularPanel"
		}
	],
	"meshes":[
		{
			"name":"Cylinder.001",
			"primitives":[
				{
					"attributes":{
						"POSITION":0,
						"NORMAL":1,
						"TEXCOORD_0":2
					},
					"indices":3
				}
			]
		}
	],
	"accessors":[
		{
			"bufferView":0,
			"componentType":5126,
			"count":13354,
			"max":[
				17.99923324584961,
				0.1875,
				17.99923324584961
			],
			"min":[
				-17.99923324584961,
				-0.1875,
				-17.99923324584961
			],
			"type":"VEC3"
		},
		{
			"bufferView":1,
			"componentType":5126,
			"count":13354,
			"type":"VEC3"
		},
		{
			"bufferView":2,
			"componentType":5126,
			"count":13354,
			"type":"VEC2"
		},
		{
			"bufferView":3,
			"componentType":5123,
			"count":21492,
			"type":"SCALAR"
		}
	],
	"bufferViews":[
		{
			"buffer":0,
			"byteLength":160248,
			"byteOffset":0,
			"target":34962
		},
		{
			"buffer":0,
			"byteLength":160248,
			"byteOffset":160248,
			"target":34962
		},
		{
			"buffer":0,
			"byteLength":106832,
			"byteOffset":320496,
			"target":34962
		},
		{
			"buffer":0,
			"byteLength":42984,
			"byteOffset":427328,
			"target":34963
		}
	],
	"buffers":[
		{
			"byteLength":470312,
			"uri":"CircularPanel.bin"
		}
	]
}
